<?xml version="1.0" standalone="no"?>
<!DOCTYPE svg PUBLIC "-//W3C//DTD SVG 20010904//EN"
 "http://www.w3.org/TR/2001/REC-SVG-20010904/DTD/svg10.dtd">
<svg version="1.0" xmlns="http://www.w3.org/2000/svg"
 width="1654.000000pt" height="2067.000000pt" viewBox="0 0 1654.000000 2067.000000"
 preserveAspectRatio="xMidYMid meet">
<metadata>
Created by potrace 1.16, written by Peter Selinger 2001-2019
</metadata>
<g transform="translate(0.000000,2067.000000) scale(0.100000,-0.100000)"
fill="#000000" stroke="none">
<path d="M5620 15594 c0 -4 23 -76 50 -161 28 -85 50 -160 50 -168 0 -7 -26
-23 -57 -36 -91 -36 -301 -142 -404 -205 -214 -129 -417 -290 -614 -488 -441
-443 -722 -954 -809 -1471 -41 -242 -46 -708 -11 -995 96 -791 427 -1476 962
-1990 60 -58 163 -157 229 -221 300 -289 723 -582 2436 -1685 1533 -988 1679
-1093 2058 -1480 176 -180 256 -277 372 -449 448 -664 418 -1374 -93 -2195
-182 -291 -398 -529 -708 -776 -321 -256 -728 -506 -1141 -700 l-175 -83 -122
65 c-510 269 -934 572 -1273 913 -406 407 -656 833 -761 1297 -23 97 -23 113
-28 979 l-6 879 -85 38 c-76 34 -86 36 -92 20 -4 -9 -71 -423 -150 -919 -78
-496 -144 -900 -145 -899 -5 4 16 2298 20 2302 2 2 33 -18 68 -44 131 -99 355
-247 759 -499 905 -566 1811 -1153 1995 -1291 423 -320 780 -817 940 -1310 11
-33 21 -50 26 -45 18 18 108 251 138 359 58 208 66 269 66 514 0 195 -3 240
-23 339 -67 328 -226 657 -460 951 -85 108 -309 334 -392 397 -49 37 -3827
2388 -3858 2400 -10 4 -12 -442 -9 -2318 4 -2552 -1 -2342 62 -2577 193 -710
862 -1462 1937 -2179 379 -252 747 -466 1155 -670 l232 -116 108 44 c349 140
889 445 1333 752 724 501 1282 1017 1621 1497 214 303 396 639 528 974 71 180
94 264 121 453 85 590 23 1073 -201 1581 -70 159 -261 533 -321 630 -243 391
-703 829 -1367 1304 -102 73 -494 339 -871 592 -1336 895 -1596 1072 -1666
1138 -28 26 -54 45 -57 42 -11 -11 -310 206 -492 358 -130 108 -366 339 -464
453 -366 428 -565 858 -621 1343 -8 64 -10 179 -7 300 5 224 23 312 95 480
101 234 311 489 556 676 65 50 79 57 90 45 14 -15 356 -576 356 -584 0 -3 -30
-20 -68 -39 -184 -93 -362 -283 -457 -489 -82 -178 -111 -310 -102 -473 14
-256 100 -549 252 -861 52 -106 96 -193 98 -193 2 0 -11 44 -29 98 -53 156
-69 249 -68 407 0 77 5 167 12 200 50 234 163 434 347 619 105 106 242 213
254 200 4 -5 36 -49 71 -99 323 -457 831 -1056 1239 -1459 l90 -90 58 47 c110
89 288 201 423 268 350 174 732 264 1162 276 l206 6 12 -44 c96 -380 313 -641
646 -775 191 -77 458 -114 685 -94 67 5 124 8 126 6 9 -9 -18 -45 -68 -90
-128 -116 -388 -195 -749 -229 l-135 -12 81 -42 c112 -59 268 -109 415 -134
105 -18 149 -20 289 -16 256 9 441 57 690 180 143 71 184 106 247 218 102 181
137 381 94 549 -69 277 -287 485 -551 526 l-45 7 49 44 c63 56 188 117 296
143 160 38 376 23 566 -39 49 -16 90 -28 92 -26 6 5 -177 248 -283 376 -206
250 -580 616 -868 852 -225 185 -554 421 -762 547 -38 23 -71 44 -73 45 -2 2
48 85 111 186 62 101 116 189 120 195 7 12 -136 144 -392 363 -304 261 -656
530 -916 703 -107 71 -149 105 -147 116 2 10 35 117 73 239 38 122 69 224 69
227 0 3 -909 6 -2020 6 -1111 0 -2020 -3 -2020 -6z m3897 -1844 c122 -17 279
-50 388 -82 55 -16 102 -31 104 -33 2 -2 -33 -56 -78 -119 -44 -63 -81 -120
-81 -125 0 -6 10 -16 23 -22 42 -23 142 -104 226 -184 104 -100 212 -242 273
-361 46 -89 114 -271 105 -281 -3 -2 -43 23 -89 55 -150 107 -519 347 -698
454 -394 236 -728 403 -999 498 l-104 37 47 28 c100 59 266 113 411 134 86 12
380 13 472 1z"/>
<path d="M10515 9382 c-89 -75 -161 -141 -162 -147 0 -5 34 -17 77 -27 182
-39 373 -119 531 -222 159 -105 324 -276 388 -404 l22 -43 27 20 c41 29 182
178 233 246 114 150 219 353 284 548 45 133 52 167 36 167 -5 0 -53 -9 -107
-21 -203 -42 -359 -60 -559 -66 -233 -6 -375 9 -516 58 -48 16 -88 29 -90 29
-2 0 -76 -62 -164 -138z"/>
</g>
</svg>
