<?xml version="1.0" standalone="no"?>
<!DOCTYPE svg PUBLIC "-//W3C//DTD SVG 20010904//EN"
 "http://www.w3.org/TR/2001/REC-SVG-20010904/DTD/svg10.dtd">
<svg version="1.0" xmlns="http://www.w3.org/2000/svg"
 width="1654.000000pt" height="2067.000000pt" viewBox="0 0 1654.000000 2067.000000"
 preserveAspectRatio="xMidYMid meet">
<metadata>
Created by potrace 1.16, written by Peter Selinger 2001-2019
</metadata>
<g transform="translate(0.000000,2067.000000) scale(0.100000,-0.100000)"
fill="#000000" stroke="none">
<path d="M7382 19235 l-273 -366 64 -62 c191 -189 255 -418 186 -667 -41 -150
-127 -287 -260 -416 -175 -168 -393 -282 -682 -355 -218 -55 -494 -51 -742 11
-293 73 -471 226 -530 455 -22 86 -20 250 5 354 17 69 18 87 8 97 -27 28
-1053 891 -1056 889 -1 -1 291 -579 649 -1284 l652 -1281 2252 0 2252 0 652
1282 c358 704 650 1282 649 1283 -3 2 -1028 -861 -1055 -888 -11 -11 -10 -27
7 -98 24 -103 27 -268 5 -353 -60 -231 -237 -383 -530 -456 -247 -62 -524 -66
-740 -12 -297 75 -526 197 -698 369 -92 93 -136 152 -188 255 -76 150 -104
321 -76 455 29 137 122 294 224 381 l45 39 -267 359 c-147 197 -270 362 -274
367 -4 4 -130 -157 -279 -358z m356 -222 c40 -56 72 -107 72 -113 0 -6 -13
-30 -29 -53 -36 -54 -78 -135 -106 -211 l-22 -59 -18 54 c-22 66 -68 160 -106
216 -16 23 -29 47 -29 53 0 17 153 231 160 223 4 -5 39 -54 78 -110z"/>
<path d="M5500 16262 c0 -5 29 -70 65 -145 l65 -137 2048 0 2048 0 46 145 45
145 -2158 0 c-1188 0 -2159 -4 -2159 -8z"/>
</g>
</svg>
