<svg xmlns="http://www.w3.org/2000/svg" viewBox="0 0 416.0 220.0" width="416.0" height="220.0"><g transform="translate(-31.059,-1.561) scale(0.10804970286331712)"><g transform="translate(0.000000,2067.000000) scale(0.100000,-0.100000)" fill-rule="evenodd"><path fill="#ffedd7" d="M7382 19235 l-273 -366 64 -62 c191 -189 255 -418 186 -667 -41 -150
-127 -287 -260 -416 -175 -168 -393 -282 -682 -355 -218 -55 -494 -51 -742 11
-293 73 -471 226 -530 455 -22 86 -20 250 5 354 17 69 18 87 8 97 -27 28
-1053 891 -1056 889 -1 -1 291 -579 649 -1284 l652 -1281 2252 0 2252 0 652
1282 c358 704 650 1282 649 1283 -3 2 -1028 -861 -1055 -888 -11 -11 -10 -27
7 -98 24 -103 27 -268 5 -353 -60 -231 -237 -383 -530 -456 -247 -62 -524 -66
-740 -12 -297 75 -526 197 -698 369 -92 93 -136 152 -188 255 -76 150 -104
321 -76 455 29 137 122 294 224 381 l45 39 -267 359 c-147 197 -270 362 -274
367 -4 4 -130 -157 -279 -358z m356 -222 c40 -56 72 -107 72 -113 0 -6 -13
-30 -29 -53 -36 -54 -78 -135 -106 -211 l-22 -59 -18 54 c-22 66 -68 160 -106
216 -16 23 -29 47 -29 53 0 17 153 231 160 223 4 -5 39 -54 78 -110z M5500 16262 c0 -5 29 -70 65 -145 l65 -137 2048 0 2048 0 46 145 45
145 -2158 0 c-1188 0 -2159 -4 -2159 -8z M5620 15594 c0 -4 23 -76 50 -161 28 -85 50 -160 50 -168 0 -7 -26
-23 -57 -36 -91 -36 -301 -142 -404 -205 -214 -129 -417 -290 -614 -488 -441
-443 -722 -954 -809 -1471 -41 -242 -46 -708 -11 -995 96 -791 427 -1476 962
-1990 60 -58 163 -157 229 -221 300 -289 723 -582 2436 -1685 1533 -988 1679
-1093 2058 -1480 176 -180 256 -277 372 -449 448 -664 418 -1374 -93 -2195
-182 -291 -398 -529 -708 -776 -321 -256 -728 -506 -1141 -700 l-175 -83 -122
65 c-510 269 -934 572 -1273 913 -406 407 -656 833 -761 1297 -23 97 -23 113
-28 979 l-6 879 -85 38 c-76 34 -86 36 -92 20 -4 -9 -71 -423 -150 -919 -78
-496 -144 -900 -145 -899 -5 4 16 2298 20 2302 2 2 33 -18 68 -44 131 -99 355
-247 759 -499 905 -566 1811 -1153 1995 -1291 423 -320 780 -817 940 -1310 11
-33 21 -50 26 -45 18 18 108 251 138 359 58 208 66 269 66 514 0 195 -3 240
-23 339 -67 328 -226 657 -460 951 -85 108 -309 334 -392 397 -49 37 -3827
2388 -3858 2400 -10 4 -12 -442 -9 -2318 4 -2552 -1 -2342 62 -2577 193 -710
862 -1462 1937 -2179 379 -252 747 -466 1155 -670 l232 -116 108 44 c349 140
889 445 1333 752 724 501 1282 1017 1621 1497 214 303 396 639 528 974 71 180
94 264 121 453 85 590 23 1073 -201 1581 -70 159 -261 533 -321 630 -243 391
-703 829 -1367 1304 -102 73 -494 339 -871 592 -1336 895 -1596 1072 -1666
1138 -28 26 -54 45 -57 42 -11 -11 -310 206 -492 358 -130 108 -366 339 -464
453 -366 428 -565 858 -621 1343 -8 64 -10 179 -7 300 5 224 23 312 95 480
101 234 311 489 556 676 65 50 79 57 90 45 14 -15 356 -576 356 -584 0 -3 -30
-20 -68 -39 -184 -93 -362 -283 -457 -489 -82 -178 -111 -310 -102 -473 14
-256 100 -549 252 -861 52 -106 96 -193 98 -193 2 0 -11 44 -29 98 -53 156
-69 249 -68 407 0 77 5 167 12 200 50 234 163 434 347 619 105 106 242 213
254 200 4 -5 36 -49 71 -99 323 -457 831 -1056 1239 -1459 l90 -90 58 47 c110
89 288 201 423 268 350 174 732 264 1162 276 l206 6 12 -44 c96 -380 313 -641
646 -775 191 -77 458 -114 685 -94 67 5 124 8 126 6 9 -9 -18 -45 -68 -90
-128 -116 -388 -195 -749 -229 l-135 -12 81 -42 c112 -59 268 -109 415 -134
105 -18 149 -20 289 -16 256 9 441 57 690 180 143 71 184 106 247 218 102 181
137 381 94 549 -69 277 -287 485 -551 526 l-45 7 49 44 c63 56 188 117 296
143 160 38 376 23 566 -39 49 -16 90 -28 92 -26 6 5 -177 248 -283 376 -206
250 -580 616 -868 852 -225 185 -554 421 -762 547 -38 23 -71 44 -73 45 -2 2
48 85 111 186 62 101 116 189 120 195 7 12 -136 144 -392 363 -304 261 -656
530 -916 703 -107 71 -149 105 -147 116 2 10 35 117 73 239 38 122 69 224 69
227 0 3 -909 6 -2020 6 -1111 0 -2020 -3 -2020 -6z m3897 -1844 c122 -17 279
-50 388 -82 55 -16 102 -31 104 -33 2 -2 -33 -56 -78 -119 -44 -63 -81 -120
-81 -125 0 -6 10 -16 23 -22 42 -23 142 -104 226 -184 104 -100 212 -242 273
-361 46 -89 114 -271 105 -281 -3 -2 -43 23 -89 55 -150 107 -519 347 -698
454 -394 236 -728 403 -999 498 l-104 37 47 28 c100 59 266 113 411 134 86 12
380 13 472 1z M10515 9382 c-89 -75 -161 -141 -162 -147 0 -5 34 -17 77 -27 182
-39 373 -119 531 -222 159 -105 324 -276 388 -404 l22 -43 27 20 c41 29 182
178 233 246 114 150 219 353 284 548 45 133 52 167 36 167 -5 0 -53 -9 -107
-21 -203 -42 -359 -60 -559 -66 -233 -6 -375 9 -516 58 -48 16 -88 29 -90 29
-2 0 -76 -62 -164 -138z"/></g></g><g transform="translate(67.281,-265.762) scale(0.2510822510822511)"><g transform="translate(0.000000,2067.000000) scale(0.100000,-0.100000)" fill-rule="evenodd"><path fill="#ffedd7" d="M10225 6689 c-232 -23 -410 -181 -474 -421 -39 -142 -46 -261 -46
-733 1 -456 7 -575 41 -715 66 -271 280 -440 559 -440 322 0 547 217 572 553
l6 77 -179 -2 -179 -3 -8 -69 c-9 -85 -44 -166 -85 -194 -46 -34 -120 -47
-177 -33 -63 16 -91 36 -120 85 -62 108 -79 308 -72 849 5 387 11 470 44 572
32 103 99 154 201 155 67 0 110 -18 146 -61 40 -46 55 -86 64 -166 l7 -68 179
-3 179 -2 -6 77 c-12 163 -66 291 -165 389 -120 121 -287 173 -487 153z M3725 6684 c-118 -19 -218 -66 -297 -142 -124 -118 -168 -231 -175
-447 -8 -221 26 -366 106 -457 53 -61 134 -107 340 -192 228 -95 280 -127 311
-190 59 -122 42 -411 -28 -490 -52 -58 -199 -76 -282 -33 -62 30 -99 104 -107
211 l-6 76 -180 0 -180 0 6 -92 c16 -243 102 -400 259 -477 102 -50 177 -65
323 -65 312 0 489 117 560 369 25 88 32 401 12 515 -24 136 -51 196 -121 265
-72 71 -143 110 -356 195 -182 72 -249 113 -276 167 -27 56 -32 239 -9 319 32
109 124 165 238 144 26 -5 55 -14 65 -19 55 -29 88 -102 98 -212 l7 -69 180 0
179 0 -7 88 c-29 352 -199 526 -525 537 -58 2 -118 1 -135 -1z M4510 6664 c0 -3 99 -316 220 -695 l220 -689 0 -435 0 -435 175 0
175 0 0 435 0 434 220 690 c121 379 220 692 220 695 0 3 -88 6 -195 6 l-194 0
-10 -37 c-5 -21 -56 -220 -112 -442 -57 -223 -105 -398 -108 -390 -2 8 -52
205 -111 439 l-106 425 -197 3 c-108 1 -197 0 -197 -4z M5937 6663 c-4 -3 -7 -512 -7 -1130 l0 -1123 180 0 180 0 2 663 3
662 264 -662 264 -663 159 0 158 0 0 1130 0 1130 -180 0 -180 0 -2 -659 -3
-659 -260 659 -260 659 -156 0 c-86 0 -159 -3 -162 -7z M7520 5540 l0 -1130 341 0 c377 0 411 4 524 63 33 17 90 61 128 98
164 162 194 339 184 1082 -5 422 -15 530 -56 649 -62 180 -216 313 -406 353
-53 11 -148 15 -392 15 l-323 0 0 -1130z m665 788 c38 -20 78 -63 100 -106 42
-84 47 -149 52 -599 7 -581 -8 -721 -82 -819 -46 -60 -89 -74 -242 -74 l-133
0 0 811 0 811 138 -4 c101 -3 145 -8 167 -20z M9020 5540 l0 -1130 180 0 180 0 0 1130 0 1130 -180 0 -180 0 0
-1130z M11526 6653 c-13 -47 -546 -2224 -546 -2233 0 -7 61 -10 187 -8 l188
3 42 215 c23 118 42 216 42 218 1 1 119 1 263 0 l263 -3 44 -217 44 -218 188
0 187 0 -13 58 c-8 31 -129 530 -269 1107 -141 578 -258 1060 -261 1073 -5 22
-7 22 -180 22 -157 0 -174 -2 -179 -17z m364 -1455 c0 -17 -16 -18 -191 -18
-177 0 -190 1 -185 18 5 15 185 892 187 910 1 11 188 -891 189 -910z M12390 6510 l0 -160 185 0 185 0 0 -970 0 -970 180 0 180 0 0 970 0
970 190 0 190 0 0 160 0 160 -555 0 -555 0 0 -160z"/></g></g></svg>