<?xml version="1.0" standalone="no"?>
<!DOCTYPE svg PUBLIC "-//W3C//DTD SVG 20010904//EN"
 "http://www.w3.org/TR/2001/REC-SVG-20010904/DTD/svg10.dtd">
<svg version="1.0" xmlns="http://www.w3.org/2000/svg"
 width="1654.000000pt" height="2067.000000pt" viewBox="0 0 1654.000000 2067.000000"
 preserveAspectRatio="xMidYMid meet">
<metadata>
Created by potrace 1.16, written by Peter Selinger 2001-2019
</metadata>
<g transform="translate(0.000000,2067.000000) scale(0.100000,-0.100000)"
fill="#000000" stroke="none">
<path d="M10225 6689 c-232 -23 -410 -181 -474 -421 -39 -142 -46 -261 -46
-733 1 -456 7 -575 41 -715 66 -271 280 -440 559 -440 322 0 547 217 572 553
l6 77 -179 -2 -179 -3 -8 -69 c-9 -85 -44 -166 -85 -194 -46 -34 -120 -47
-177 -33 -63 16 -91 36 -120 85 -62 108 -79 308 -72 849 5 387 11 470 44 572
32 103 99 154 201 155 67 0 110 -18 146 -61 40 -46 55 -86 64 -166 l7 -68 179
-3 179 -2 -6 77 c-12 163 -66 291 -165 389 -120 121 -287 173 -487 153z"/>
<path d="M3725 6684 c-118 -19 -218 -66 -297 -142 -124 -118 -168 -231 -175
-447 -8 -221 26 -366 106 -457 53 -61 134 -107 340 -192 228 -95 280 -127 311
-190 59 -122 42 -411 -28 -490 -52 -58 -199 -76 -282 -33 -62 30 -99 104 -107
211 l-6 76 -180 0 -180 0 6 -92 c16 -243 102 -400 259 -477 102 -50 177 -65
323 -65 312 0 489 117 560 369 25 88 32 401 12 515 -24 136 -51 196 -121 265
-72 71 -143 110 -356 195 -182 72 -249 113 -276 167 -27 56 -32 239 -9 319 32
109 124 165 238 144 26 -5 55 -14 65 -19 55 -29 88 -102 98 -212 l7 -69 180 0
179 0 -7 88 c-29 352 -199 526 -525 537 -58 2 -118 1 -135 -1z"/>
<path d="M4510 6664 c0 -3 99 -316 220 -695 l220 -689 0 -435 0 -435 175 0
175 0 0 435 0 434 220 690 c121 379 220 692 220 695 0 3 -88 6 -195 6 l-194 0
-10 -37 c-5 -21 -56 -220 -112 -442 -57 -223 -105 -398 -108 -390 -2 8 -52
205 -111 439 l-106 425 -197 3 c-108 1 -197 0 -197 -4z"/>
<path d="M5937 6663 c-4 -3 -7 -512 -7 -1130 l0 -1123 180 0 180 0 2 663 3
662 264 -662 264 -663 159 0 158 0 0 1130 0 1130 -180 0 -180 0 -2 -659 -3
-659 -260 659 -260 659 -156 0 c-86 0 -159 -3 -162 -7z"/>
<path d="M7520 5540 l0 -1130 341 0 c377 0 411 4 524 63 33 17 90 61 128 98
164 162 194 339 184 1082 -5 422 -15 530 -56 649 -62 180 -216 313 -406 353
-53 11 -148 15 -392 15 l-323 0 0 -1130z m665 788 c38 -20 78 -63 100 -106 42
-84 47 -149 52 -599 7 -581 -8 -721 -82 -819 -46 -60 -89 -74 -242 -74 l-133
0 0 811 0 811 138 -4 c101 -3 145 -8 167 -20z"/>
<path d="M9020 5540 l0 -1130 180 0 180 0 0 1130 0 1130 -180 0 -180 0 0
-1130z"/>
<path d="M11526 6653 c-13 -47 -546 -2224 -546 -2233 0 -7 61 -10 187 -8 l188
3 42 215 c23 118 42 216 42 218 1 1 119 1 263 0 l263 -3 44 -217 44 -218 188
0 187 0 -13 58 c-8 31 -129 530 -269 1107 -141 578 -258 1060 -261 1073 -5 22
-7 22 -180 22 -157 0 -174 -2 -179 -17z m364 -1455 c0 -17 -16 -18 -191 -18
-177 0 -190 1 -185 18 5 15 185 892 187 910 1 11 188 -891 189 -910z"/>
<path d="M12390 6510 l0 -160 185 0 185 0 0 -970 0 -970 180 0 180 0 0 970 0
970 190 0 190 0 0 160 0 160 -555 0 -555 0 0 -160z"/>
</g>
</svg>
